<svg id="Layer_1" data-name="Layer 1" xmlns="http://www.w3.org/2000/svg" viewBox="0 0 300 300"><defs><style>.cls-1{fill:#00a0d2;}.cls-2{fill:#0465c0;}.cls-3{fill:#f85756;}.cls-4{fill:#ffc471;}.cls-5{fill:#002351;}.cls-6{fill:none;}</style></defs><title>_</title><circle class="cls-1" cx="110.626" cy="112.274" r="9.488"/><circle class="cls-1" cx="150.003" cy="124.347" r="9.488"/><circle class="cls-2" cx="190.658" cy="101.501" r="9.488"/><path class="cls-1" d="M209.251,205.8,150,239.177l-38.243-22.138L86.4,202.37l.341-.341c2.729-2.693,21.528-20.917,32.731-22.048,12.1-1.239,19.553,8.313,19.553,8.313s14.112-7.02,24.436-3.878,16.608,13.466,16.608,13.466C200.309,194.559,209.251,205.8,209.251,205.8Z"/><path class="cls-3" d="M180.074,197.881l-68.318,19.158-11.994-7.2-13.017-7.81c2.729-2.693,21.528-20.917,32.731-22.048,12.1-1.239,19.553,8.313,19.553,8.313s14.112-7.02,24.436-3.878S180.074,197.881,180.074,197.881Z"/><path class="cls-4" d="M139.03,188.293,99.763,209.839l-13.017-7.81c2.729-2.693,21.528-20.917,32.731-22.048C131.579,178.741,139.03,188.293,139.03,188.293Z"/><path class="cls-5" d="M150,242.467a2.687,2.687,0,0,1-1.347-.361L70.913,197.219a2.692,2.692,0,0,1-1.347-2.332V105.113a2.692,2.692,0,0,1,1.347-2.332l77.744-44.887a2.691,2.691,0,0,1,2.692,0l32.482,18.744a2.694,2.694,0,0,1-2.693,4.666L150,63.336,74.952,106.669v86.663L150,236.664l75.05-43.332V106.669l-8.649-4.993A2.694,2.694,0,0,1,219.1,97.01l10,5.77a2.7,2.7,0,0,1,1.347,2.333v89.774a2.693,2.693,0,0,1-1.347,2.332L151.35,242.106A2.687,2.687,0,0,1,150,242.467Z"/><path class="cls-5" d="M112.065,220.562a2.695,2.695,0,0,1-.6-5.322l67.632-19.653a32.967,32.967,0,0,1,32.11,8,2.693,2.693,0,1,1-3.752,3.863,27.581,27.581,0,0,0-26.855-6.688l-67.779,19.7A2.688,2.688,0,0,1,112.065,220.562Z"/><path class="cls-5" d="M98.207,212.555a2.694,2.694,0,0,1-1.276-5.067l45.5-24.4a25.775,25.775,0,0,1,30.475,4.406l8.839,8.767a2.694,2.694,0,0,1-3.794,3.824l-8.834-8.763a20.418,20.418,0,0,0-24.137-3.49l-45.5,24.4A2.679,2.679,0,0,1,98.207,212.555Z"/><path class="cls-5" d="M85.009,204.942a2.693,2.693,0,0,1-1.667-4.81l24.042-18.924a20.675,20.675,0,0,1,24.83-.681l7.844,5.493a2.693,2.693,0,1,1-3.089,4.412l-7.846-5.494a15.326,15.326,0,0,0-18.405.5L86.673,204.365A2.683,2.683,0,0,1,85.009,204.942Z"/><path class="cls-5" d="M163.394,122.884A13.528,13.528,0,0,0,150,110.837a13.419,13.419,0,0,0-12.012,7.433,11.214,11.214,0,0,0-.97,2.514,12.059,12.059,0,0,0-.449,2.693,6.215,6.215,0,0,0-.036.826,13.466,13.466,0,0,0,26.932,0A12.314,12.314,0,0,0,163.394,122.884ZM150,132.382a8.08,8.08,0,0,1-8.08-8.08,8.463,8.463,0,0,1,.2-1.8,1.893,1.893,0,0,0,.108-.431,8.075,8.075,0,0,1,15.585.215,1.321,1.321,0,0,0,.072.251A8.065,8.065,0,0,1,150,132.382Z"/><path class="cls-5" d="M202.787,95.737a12.73,12.73,0,0,0-3.232-4.309,13.317,13.317,0,0,0-8.905-3.393A13.482,13.482,0,0,0,177.184,101.5a13,13,0,0,0,.88,4.74,12.861,12.861,0,0,0,2.873,4.56,13.449,13.449,0,0,0,23.18-9.3A12.949,12.949,0,0,0,202.787,95.737ZM190.65,109.58a8.1,8.1,0,0,1-6.733-3.609c-.072-.126-.144-.233-.215-.359a7.979,7.979,0,0,1-1.131-4.112,8.076,8.076,0,0,1,14.4-5.027,7.961,7.961,0,0,1,1.76,5.027A8.08,8.08,0,0,1,190.65,109.58Z"/><path class="cls-5" d="M109.333,98.807a13.472,13.472,0,0,0-12.407,18.709A13.2,13.2,0,0,0,100,121.95a13.422,13.422,0,0,0,21.33-3.591,13.386,13.386,0,0,0,1.418-5.207,7.225,7.225,0,0,0,.054-.88A13.471,13.471,0,0,0,109.333,98.807Zm0,21.546a8.051,8.051,0,0,1-6.643-3.5.1.1,0,0,1-.054-.072,8.074,8.074,0,1,1,6.7,3.573Z"/><path class="cls-5" d="M72.256,137.777a2.693,2.693,0,0,1-1.363-5.017L99.2,116.187a2.693,2.693,0,1,1,2.721,4.648l-28.31,16.573A2.677,2.677,0,0,1,72.256,137.777Z"/><line class="cls-6" x1="120.113" y1="115.109" x2="139.572" y2="121.649"/><path class="cls-5" d="M139.572,124.343a2.7,2.7,0,0,1-.858-.141l-19.458-6.539a2.693,2.693,0,0,1,1.717-5.106L140.43,119.1a2.694,2.694,0,0,1-.858,5.247Z"/><path class="cls-5" d="M199.2,97.63a2.693,2.693,0,0,1-1.529-4.911l16.769-11.544a2.693,2.693,0,1,1,3.054,4.436L200.722,97.155A2.675,2.675,0,0,1,199.2,97.63Z"/><path class="cls-5" d="M160.433,124.347a2.693,2.693,0,0,1-1.53-4.911l21.061-14.508a2.693,2.693,0,1,1,3.054,4.436l-21.06,14.508A2.682,2.682,0,0,1,160.433,124.347Z"/><path d="M114.7,156.729h-3.842a.736.736,0,0,0-.5.162,1.547,1.547,0,0,0-.341.449,2.7,2.7,0,0,1-.862,1.311,2.449,2.449,0,0,1-1.49.413,2.256,2.256,0,0,1-1.831-.754,4.007,4.007,0,0,1-.718-2.424,21.079,21.079,0,0,1,0-2.137,3.954,3.954,0,0,1,.7-2.406,2.286,2.286,0,0,1,1.849-.79,2.384,2.384,0,0,1,1.436.395,2.73,2.73,0,0,1,.916,1.329,1.546,1.546,0,0,0,.341.449.73.73,0,0,0,.5.144H114.7a.792.792,0,0,0,.539-.215.6.6,0,0,0,.215-.521,4.125,4.125,0,0,0-.5-1.616,6.27,6.27,0,0,0-1.382-1.8,7.215,7.215,0,0,0-2.424-1.472,9.6,9.6,0,0,0-3.573-.592,9.329,9.329,0,0,0-3.968.826,6.375,6.375,0,0,0-2.729,2.37A7.266,7.266,0,0,0,99.8,153.6c-.018.323-.036.718-.036,1.221,0,.485.018.9.036,1.221a7.245,7.245,0,0,0,1.1,3.717,6.481,6.481,0,0,0,2.729,2.37,9.189,9.189,0,0,0,3.95.826,10.122,10.122,0,0,0,3.016-.413,8.53,8.53,0,0,0,2.226-1.041,6.543,6.543,0,0,0,1.49-1.382,6.178,6.178,0,0,0,.844-1.454,4.111,4.111,0,0,0,.305-1.185.617.617,0,0,0-.215-.539A.792.792,0,0,0,114.7,156.729Z"/><path d="M134.757,161.738a.748.748,0,0,0-.126-.233l-5.117-6.913,4.7-6.482a.683.683,0,0,0,.108-.233,1.212,1.212,0,0,0,.036-.251.674.674,0,0,0-.664-.664H130.16a.794.794,0,0,0-.575.2c-.144.126-.233.251-.323.341l-2.765,3.842-2.819-3.86a1.156,1.156,0,0,0-.287-.341.877.877,0,0,0-.575-.18h-3.681a.727.727,0,0,0-.485.2.6.6,0,0,0-.215.467.634.634,0,0,0,.054.251.746.746,0,0,0,.126.233l4.578,6.482-5.027,6.913a.664.664,0,0,0-.126.251.966.966,0,0,0-.018.2.647.647,0,0,0,.664.7h3.753a.825.825,0,0,0,.557-.18c.108-.126.215-.233.287-.305l3.088-4.13,3.034,4.13c.09.09.2.2.305.323a.824.824,0,0,0,.557.162h3.842a.648.648,0,0,0,.664-.7A1.03,1.03,0,0,0,134.757,161.738Z"/><path d="M154.561,153.694a9.841,9.841,0,0,0-.5-2.981,6.244,6.244,0,0,0-1.293-2.208,5.315,5.315,0,0,0-1.975-1.383,7,7,0,0,0-2.639-.467,5.892,5.892,0,0,0-2.819.628,6.052,6.052,0,0,0-1.867,1.526v-1.1a.731.731,0,0,0-.215-.539.791.791,0,0,0-.539-.215H139.3a.736.736,0,0,0-.754.754v19.912a.719.719,0,0,0,.215.521.683.683,0,0,0,.539.233h3.681a.7.7,0,0,0,.557-.233.783.783,0,0,0,.2-.521v-6.7a4.773,4.773,0,0,0,1.831,1.49,5.833,5.833,0,0,0,2.585.539,6.808,6.808,0,0,0,2.657-.5,5.808,5.808,0,0,0,1.975-1.4,6.667,6.667,0,0,0,1.275-2.208,9.674,9.674,0,0,0,.5-2.927c.036-.4.036-.772.036-1.113S154.6,154.089,154.561,153.694Zm-5.3,2.047a6.147,6.147,0,0,1-.323,1.6,2.353,2.353,0,0,1-.826,1.149,2.6,2.6,0,0,1-1.6.413,2.741,2.741,0,0,1-1.544-.395,2.566,2.566,0,0,1-.9-1.059,3.653,3.653,0,0,1-.341-1.4c-.018-.4-.018-.79-.018-1.149s0-.736.018-1.113a5.777,5.777,0,0,1,.341-1.508,2.38,2.38,0,0,1,.88-1.131,3.168,3.168,0,0,1,3.16-.018,2.354,2.354,0,0,1,.826,1.149,6.148,6.148,0,0,1,.323,1.6A16.231,16.231,0,0,1,149.264,155.741Z"/><path d="M163.951,141.449a.731.731,0,0,0-.539-.215h-3.573a.736.736,0,0,0-.754.754V161.9a.719.719,0,0,0,.215.521.683.683,0,0,0,.539.233h3.573a.683.683,0,0,0,.539-.233.719.719,0,0,0,.215-.521V141.988A.731.731,0,0,0,163.951,141.449Z"/><path d="M184.635,153.443a7.5,7.5,0,0,0-1.077-3.645,6.241,6.241,0,0,0-2.711-2.316,11.054,11.054,0,0,0-8.385,0,6.3,6.3,0,0,0-2.693,2.316,7.319,7.319,0,0,0-1.077,3.645c-.036.4-.036.844-.036,1.347,0,.521,0,.97.036,1.383a7.535,7.535,0,0,0,1.041,3.627,5.882,5.882,0,0,0,2.639,2.334,11.515,11.515,0,0,0,8.564,0,5.836,5.836,0,0,0,2.657-2.334,7.736,7.736,0,0,0,1.041-3.627c.018-.413.036-.862.036-1.383C184.671,154.287,184.653,153.838,184.635,153.443Zm-5.315,2.568a4.34,4.34,0,0,1-.7,2.442,2.731,2.731,0,0,1-3.914,0,4.07,4.07,0,0,1-.718-2.442c-.018-.305-.036-.7-.036-1.2s.018-.9.036-1.2a4.052,4.052,0,0,1,.718-2.424,2.691,2.691,0,0,1,3.914,0,4.321,4.321,0,0,1,.7,2.424,20.208,20.208,0,0,1,0,2.406Z"/><path d="M200.471,158.722a.794.794,0,0,0-.539-.2H197.6a1.454,1.454,0,0,1-1.311-.611,2.9,2.9,0,0,1-.4-1.634v-5.368h3.77a.877.877,0,0,0,.557-.2.744.744,0,0,0,.216-.557v-2.442a.731.731,0,0,0-.216-.539.8.8,0,0,0-.557-.215h-3.77v-4.973a.736.736,0,0,0-.754-.754h-3.5a.791.791,0,0,0-.539.215.731.731,0,0,0-.215.539v4.973h-2.352a.744.744,0,0,0-.557.215.683.683,0,0,0-.233.539v2.442a.7.7,0,0,0,.233.557.809.809,0,0,0,.557.2h2.352v5.8a6.783,6.783,0,0,0,.754,3.393,4.492,4.492,0,0,0,2.155,1.921,8.21,8.21,0,0,0,3.34.628h2.8a.682.682,0,0,0,.539-.233.719.719,0,0,0,.215-.521v-2.621A.744.744,0,0,0,200.471,158.722Z"/></svg>